{
  "accessors": [
    {
      "bufferView": 2,
      "componentType": 5126,
      "count": 3496,
      "max": [
        2.8212730884552,
        7.341793060302734,
        0.6913099884986877
      ],
      "min": [
        -2.799881935119629,
        3.79543399810791,
        -0.8276299834251404
      ],
      "type": "VEC3"
    },
    {
      "bufferView": 2,
      "byteOffset": 41952,
      "componentType": 5126,
      "count": 3496,
      "max": [
        0.9993733763694763,
        0.9998103380203247,
        0.999937891960144
      ],
      "min": [
        -0.99968022108078,
        -0.9976575374603271,
        -0.9997945427894592
      ],
      "type": "VEC3"
    },
    {
      "bufferView": 3,
      "componentType": 5126,
      "count": 3496,
      "max": [
        0.9999953508377075,
        0.9794822931289673,
        0.9998168349266052,
        1.0
      ],
      "min": [
        -0.9999993443489075,
        -0.9944673180580139,
        -0.999752402305603,
        -1.0
      ],
      "type": "VEC4"
    },
    {
      "bufferView": 1,
      "componentType": 5126,
      "count": 3496,
      "max": [
        0.9999809861183167,
        1.0
      ],
      "min": [
        0.0,
        0.0
      ],
      "type": "VEC2"
    },
    {
      "bufferView": 0,
      "componentType": 5125,
      "count": 17964,
      "type": "SCALAR"
    },
    {
      "bufferView": 2,
      "byteOffset": 83904,
      "componentType": 5126,
      "count": 1258,
      "max": [
        2.6674768924713135,
        7.005198001861572,
        0.34233999252319336
      ],
      "min": [
        -2.6658248901367188,
        5.260767936706543,
        -0.405458003282547
      ],
      "type": "VEC3"
    },
    {
      "bufferView": 2,
      "byteOffset": 99000,
      "componentType": 5126,
      "count": 1258,
      "max": [
        0.9997285008430481,
        0.999438464641571,
        0.9998775124549866
      ],
      "min": [
        -0.9997251033782959,
        -0.9990911483764648,
        -0.9995195269584656
      ],
      "type": "VEC3"
    },
    {
      "bufferView": 3,
      "byteOffset": 55936,
      "componentType": 5126,
      "count": 1258,
      "max": [
        0.9997767806053162,
        0.9985070824623108,
        0.9999111294746399,
        1.0
      ],
      "min": [
        -0.9999385476112366,
        -0.9963934421539307,
        -0.9281073212623596,
        1.0
      ],
      "type": "VEC4"
    },
    {
      "bufferView": 1,
      "byteOffset": 27968,
      "componentType": 5126,
      "count": 1258,
      "max": [
        0.9540929794311523,
        0.24650299549102783
      ],
      "min": [
        0.0,
        0.06429799646139145
      ],
      "type": "VEC2"
    },
    {
      "bufferView": 0,
      "byteOffset": 71856,
      "componentType": 5125,
      "count": 5484,
      "type": "SCALAR"
    },
    {
      "bufferView": 2,
      "byteOffset": 114096,
      "componentType": 5126,
      "count": 2502,
      "max": [
        2.586064100265503,
        6.956910133361816,
        0.6130369901657104
      ],
      "min": [
        -2.594588041305542,
        4.534274101257324,
        -0.3683690130710602
      ],
      "type": "VEC3"
    },
    {
      "bufferView": 2,
      "byteOffset": 144120,
      "componentType": 5126,
      "count": 2502,
      "max": [
        0.9965517520904541,
        0.9997740983963013,
        0.9992547631263733
      ],
      "min": [
        -0.9965524673461914,
        -0.9997746348381042,
        -0.9992547631263733
      ],
      "type": "VEC3"
    },
    {
      "bufferView": 3,
      "byteOffset": 76064,
      "componentType": 5126,
      "count": 2502,
      "max": [
        0.999762237071991,
        0.9871262907981873,
        0.9998816251754761,
        1.0
      ],
      "min": [
        -0.9997840523719788,
        -0.9928174614906311,
        -0.9999094009399414,
        1.0
      ],
      "type": "VEC4"
    },
    {
      "bufferView": 1,
      "byteOffset": 38032,
      "componentType": 5126,
      "count": 2502,
      "max": [
        0.9989830255508423,
        0.2064030021429062
      ],
      "min": [
        0.0,
        0.0
      ],
      "type": "VEC2"
    },
    {
      "bufferView": 0,
      "byteOffset": 93792,
      "componentType": 5125,
      "count": 12906,
      "type": "SCALAR"
    },
    {
      "bufferView": 2,
      "byteOffset": 174144,
      "componentType": 5126,
      "count": 208,
      "max": [
        0.1049090027809143,
        6.719430923461914,
        0.48430800437927246
      ],
      "min": [
        -0.10339699685573578,
        6.036579132080078,
        0.13570499420166016
      ],
      "type": "VEC3"
    },
    {
      "bufferView": 2,
      "byteOffset": 176640,
      "componentType": 5126,
      "count": 208,
      "max": [
        0.9983532428741455,
        0.9009160995483398,
        0.9287658929824829
      ],
      "min": [
        -0.9988849759101868,
        -0.8788961172103882,
        -0.9279176592826843
      ],
      "type": "VEC3"
    },
    {
      "bufferView": 3,
      "byteOffset": 116096,
      "componentType": 5126,
      "count": 208,
      "max": [
        0.7808946967124939,
        0.39989805221557617,
        0.786714494228363,
        1.0
      ],
      "min": [
        -0.6137493252754211,
        -0.9467592835426331,
        -0.9492230415344238,
        1.0
      ],
      "type": "VEC4"
    },
    {
      "bufferView": 1,
      "byteOffset": 58048,
      "componentType": 5126,
      "count": 208,
      "max": [
        0.9284489750862122,
        0.20106300711631775
      ],
      "min": [
        0.7698990106582642,
        0.0
      ],
      "type": "VEC2"
    },
    {
      "bufferView": 0,
      "byteOffset": 145416,
      "componentType": 5125,
      "count": 552,
      "type": "SCALAR"
    },
    {
      "bufferView": 2,
      "byteOffset": 179136,
      "componentType": 5126,
      "count": 735,
      "max": [
        0.033066000789403915,
        6.0619401931762695,
        0.5120030045509338
      ],
      "min": [
        -0.03495899960398674,
        5.991262912750244,
        0.46337100863456726
      ],
      "type": "VEC3"
    },
    {
      "bufferView": 2,
      "byteOffset": 187956,
      "componentType": 5126,
      "count": 735,
      "max": [
        0.9995457530021667,
        0.9831042289733887,
        0.9841352105140686
      ],
      "min": [
        -0.9995983839035034,
        -0.9878714680671692,
        -0.9856300950050354
      ],
      "type": "VEC3"
    },
    {
      "bufferView": 3,
      "byteOffset": 119424,
      "componentType": 5126,
      "count": 735,
      "max": [
        0.9995867013931274,
        0.9855544567108154,
        0.9992220997810364,
        1.0
      ],
      "min": [
        -0.9991058707237244,
        -0.9993714094161987,
        -0.999277651309967,
        1.0
      ],
      "type": "VEC4"
    },
    {
      "bufferView": 1,
      "byteOffset": 59712,
      "componentType": 5126,
      "count": 735,
      "max": [
        0.8946599960327148,
        0.010869000107049942
      ],
      "min": [
        0.06999099999666214,
        0.0
      ],
      "type": "VEC2"
    },
    {
      "bufferView": 0,
      "byteOffset": 147624,
      "componentType": 5125,
      "count": 1176,
      "type": "SCALAR"
    },
    {
      "bufferView": 2,
      "byteOffset": 196776,
      "componentType": 5126,
      "count": 596,
      "max": [
        0.38878199458122253,
        6.1337409019470215,
        0.4470919966697693
      ],
      "min": [
        0.3359279930591583,
        6.08125114440918,
        0.4070650041103363
      ],
      "type": "VEC3"
    },
    {
      "bufferView": 2,
      "byteOffset": 203928,
      "componentType": 5126,
      "count": 596,
      "max": [
        0.9947888851165771,
        0.9846681356430054,
        0.9752893447875977
      ],
      "min": [
        -0.9928993582725525,
        -0.984712541103363,
        -0.9745901226997375
      ],
      "type": "VEC3"
    },
    {
      "bufferView": 3,
      "byteOffset": 131184,
      "componentType": 5126,
      "count": 596,
      "max": [
        0.9997569918632507,
        0.6255217790603638,
        0.999841034412384,
        1.0
      ],
      "min": [
        -0.992731511592865,
        -0.9993504881858826,
        -0.9990915656089783,
        -1.0
      ],
      "type": "VEC4"
    },
    {
      "bufferView": 1,
      "byteOffset": 65592,
      "componentType": 5126,
      "count": 596,
      "max": [
        0.9004740118980408,
        0.022502999752759933
      ],
      "min": [
        0.11198499798774719,
        0.0
      ],
      "type": "VEC2"
    },
    {
      "bufferView": 0,
      "byteOffset": 152328,
      "componentType": 5125,
      "count": 912,
      "type": "SCALAR"
    },
    {
      "bufferView": 2,
      "byteOffset": 211080,
      "componentType": 5126,
      "count": 221,
      "max": [
        0.02719699963927269,
        6.024339199066162,
        0.5243080258369446
      ],
      "min": [
        -0.022336000576615334,
        5.9022297859191895,
        0.49318400025367737
      ],
      "type": "VEC3"
    },
    {
      "bufferView": 2,
      "byteOffset": 213732,
      "componentType": 5126,
      "count": 221,
      "max": [
        0.9991066455841064,
        0.9889612197875977,
        0.983232855796814
      ],
      "min": [
        -0.9996898770332336,
        -0.9857838749885559,
        -0.9828060269355774
      ],
      "type": "VEC3"
    },
    {
      "bufferView": 3,
      "byteOffset": 140720,
      "componentType": 5126,
      "count": 221,
      "max": [
        0.9996213912963867,
        0.9980738162994385,
        0.9904865026473999,
        1.0
      ],
      "min": [
        -0.9992020726203918,
        -0.9346309304237366,
        -0.9865669012069702,
        -1.0
      ],
      "type": "VEC4"
    },
    {
      "bufferView": 1,
      "byteOffset": 70360,
      "componentType": 5126,
      "count": 221,
      "max": [
        0.182000994682312,
        0.047807998955249786
      ],
      "min": [
        0.0,
        0.0
      ],
      "type": "VEC2"
    },
    {
      "bufferView": 0,
      "byteOffset": 155976,
      "componentType": 5125,
      "count": 372,
      "type": "SCALAR"
    },
    {
      "bufferView": 2,
      "byteOffset": 216384,
      "componentType": 5126,
      "count": 208,
      "max": [
        0.38157498836517334,
        6.1052680015563965,
        0.4665539860725403
      ],
      "min": [
        0.3439210057258606,
        6.013780117034912,
        0.4296720027923584
      ],
      "type": "VEC3"
    },
    {
      "bufferView": 2,
      "byteOffset": 218880,
      "componentType": 5126,
      "count": 208,
      "max": [
        0.9970124959945679,
        0.9905516505241394,
        0.9652507901191711
      ],
      "min": [
        -0.9924889802932739,
        -0.9874069094657898,
        -0.9647451043128967
      ],
      "type": "VEC3"
    },
    {
      "bufferView": 3,
      "byteOffset": 144256,
      "componentType": 5126,
      "count": 208,
      "max": [
        0.547889769077301,
        0.1759350597858429,
        0.9849683046340942,
        1.0
      ],
      "min": [
        -0.9889124035835266,
        -0.9918453097343445,
        -0.9857598543167114,
        -1.0
      ],
      "type": "VEC4"
    },
    {
      "bufferView": 1,
      "byteOffset": 72128,
      "componentType": 5126,
      "count": 208,
      "max": [
        0.38086798787117004,
        0.007631000131368637
      ],
      "min": [
        0.05249299854040146,
        0.0
      ],
      "type": "VEC2"
    },
    {
      "bufferView": 0,
      "byteOffset": 157464,
      "componentType": 5125,
      "count": 324,
      "type": "SCALAR"
    }
  ],
  "asset": {
    "extras": {
      "author": "DerekHill1 (https://sketchfab.com/DerekHill1)",
      "license": "CC-BY-4.0 (http://creativecommons.org/licenses/by/4.0/)",
      "source": "https://sketchfab.com/3d-models/wool-jacket-09bdd9d188e9405b88bbafdbbffbd93d",
      "title": "Wool Jacket"
    },
    "generator": "Sketchfab-12.65.0",
    "version": "2.0"
  },
  "bufferViews": [
    {
      "buffer": 0,
      "byteLength": 158760,
      "name": "floatBufferViews",
      "target": 34963
    },
    {
      "buffer": 0,
      "byteLength": 73792,
      "byteOffset": 158760,
      "byteStride": 8,
      "name": "floatBufferViews",
      "target": 34962
    },
    {
      "buffer": 0,
      "byteLength": 221376,
      "byteOffset": 232552,
      "byteStride": 12,
      "name": "floatBufferViews",
      "target": 34962
    },
    {
      "buffer": 0,
      "byteLength": 147584,
      "byteOffset": 453928,
      "byteStride": 16,
      "name": "floatBufferViews",
      "target": 34962
    }
  ],
  "buffers": [
    {
      "byteLength": 601512,
      "uri": "scene.bin"
    }
  ],
  "images": [
    {
      "uri": "wool_jacket/textures/jacket_basic_baseColor.jpeg"
    },
    {
      "uri": "wool_jacket/textures/jacket_basic_metallicRoughness.png"
    },
    {
      "uri": "wool_jacket/textures/jacket_basic_normal.png"
    }
  ],
  "materials": [
    {
      "doubleSided": true,
      "name": "jacket_basic",
      "normalTexture": {
        "index": 2
      },
      "occlusionTexture": {
        "index": 1
      },
      "pbrMetallicRoughness": {
        "baseColorTexture": {
          "index": 0
        },
        "metallicRoughnessTexture": {
          "index": 1
        }
      }
    }
  ],
  "meshes": [
    {
      "name": "defaultMaterial",
      "primitives": [
        {
          "attributes": {
            "NORMAL": 1,
            "POSITION": 0,
            "TANGENT": 2,
            "TEXCOORD_0": 3
          },
          "indices": 4,
          "material": 0,
          "mode": 4
        }
      ]
    },
    {
      "name": "defaultMaterial",
      "primitives": [
        {
          "attributes": {
            "NORMAL": 6,
            "POSITION": 5,
            "TANGENT": 7,
            "TEXCOORD_0": 8
          },
          "indices": 9,
          "material": 0,
          "mode": 4
        }
      ]
    },
    {
      "name": "defaultMaterial",
      "primitives": [
        {
          "attributes": {
            "NORMAL": 11,
            "POSITION": 10,
            "TANGENT": 12,
            "TEXCOORD_0": 13
          },
          "indices": 14,
          "material": 0,
          "mode": 4
        }
      ]
    },
    {
      "name": "defaultMaterial",
      "primitives": [
        {
          "attributes": {
            "NORMAL": 16,
            "POSITION": 15,
            "TANGENT": 17,
            "TEXCOORD_0": 18
          },
          "indices": 19,
          "material": 0,
          "mode": 4
        }
      ]
    },
    {
      "name": "defaultMaterial",
      "primitives": [
        {
          "attributes": {
            "NORMAL": 21,
            "POSITION": 20,
            "TANGENT": 22,
            "TEXCOORD_0": 23
          },
          "indices": 24,
          "material": 0,
          "mode": 4
        }
      ]
    },
    {
      "name": "defaultMaterial",
      "primitives": [
        {
          "attributes": {
            "NORMAL": 26,
            "POSITION": 25,
            "TANGENT": 27,
            "TEXCOORD_0": 28
          },
          "indices": 29,
          "material": 0,
          "mode": 4
        }
      ]
    },
    {
      "name": "defaultMaterial",
      "primitives": [
        {
          "attributes": {
            "NORMAL": 31,
            "POSITION": 30,
            "TANGENT": 32,
            "TEXCOORD_0": 33
          },
          "indices": 34,
          "material": 0,
          "mode": 4
        }
      ]
    },
    {
      "name": "defaultMaterial",
      "primitives": [
        {
          "attributes": {
            "NORMAL": 36,
            "POSITION": 35,
            "TANGENT": 37,
            "TEXCOORD_0": 38
          },
          "indices": 39,
          "material": 0,
          "mode": 4
        }
      ]
    }
  ],
  "nodes": [
    {
      "children": [
        1
      ],
      "matrix": [
        0.23672549426555634,
        0.0,
        0.0,
        0.0,
        0.0,
        5.256361884987822e-17,
        -0.23672549426555634,
        0.0,
        0.0,
        0.23672549426555634,
        5.256361884987822e-17,
        0.0,
        0.0,
        -8.141249452364713e-09,
        -2.4460362624267876e-08,
        1.0
      ],
      "name": "Sketchfab_model"
    },
    {
      "children": [
        2,
        4,
        6,
        8,
        10,
        12,
        14,
        16
      ],
      "matrix": [
        1.0,
        0.0,
        0.0,
        0.0,
        0.0,
        -4.371139006309477e-08,
        0.999999999999999,
        0.0,
        0.0,
        -0.999999999999999,
        -4.371139006309477e-08,
        0.0,
        0.0,
        0.0,
        0.0,
        1.0
      ],
      "name": "Collada visual scene group"
    },
    {
      "children": [
        3
      ],
      "name": "jacket_low"
    },
    {
      "mesh": 0,
      "name": "defaultMaterial"
    },
    {
      "children": [
        5
      ],
      "name": "flaps_low"
    },
    {
      "mesh": 1,
      "name": "defaultMaterial"
    },
    {
      "children": [
        7
      ],
      "name": "buttons_low"
    },
    {
      "mesh": 2,
      "name": "defaultMaterial"
    },
    {
      "children": [
        9
      ],
      "name": "zipper_teeth_low"
    },
    {
      "mesh": 3,
      "name": "defaultMaterial"
    },
    {
      "children": [
        11
      ],
      "name": "zipper_base1_low"
    },
    {
      "mesh": 4,
      "name": "defaultMaterial"
    },
    {
      "children": [
        13
      ],
      "name": "zipper_base2_low"
    },
    {
      "mesh": 5,
      "name": "defaultMaterial"
    },
    {
      "children": [
        15
      ],
      "name": "zipper_pull1_low"
    },
    {
      "mesh": 6,
      "name": "defaultMaterial"
    },
    {
      "children": [
        17
      ],
      "name": "zipper_pull2_low"
    },
    {
      "mesh": 7,
      "name": "defaultMaterial"
    }
  ],
  "samplers": [
    {
      "magFilter": 9729,
      "minFilter": 9987,
      "wrapS": 10497,
      "wrapT": 10497
    }
  ],
  "scene": 0,
  "scenes": [
    {
      "name": "Sketchfab_Scene",
      "nodes": [
        0
      ]
    }
  ],
  "textures": [
    {
      "sampler": 0,
      "source": 0
    },
    {
      "sampler": 0,
      "source": 1
    },
    {
      "sampler": 0,
      "source": 2
    }
  ]
}
